<svg width="42" height="42" viewBox="0 0 42 42" fill="none" xmlns="http://www.w3.org/2000/svg">
<path d="M20.9765 41.7222C32.434 41.7222 41.7222 32.434 41.7222 20.9765C41.7222 9.51894 32.434 0.230774 20.9765 0.230774C9.51894 0.230774 0.230774 9.51894 0.230774 20.9765C0.230774 32.434 9.51894 41.7222 20.9765 41.7222Z" fill="#3F8E00"/>
<path d="M17.9697 29.9663C17.9651 29.9663 17.9605 29.9663 17.9564 29.9663C17.3571 29.9621 16.7886 29.6994 16.3977 29.2457L10.1841 22.0294C9.43634 21.1613 9.53408 19.8511 10.4026 19.1034C11.2712 18.3561 12.5809 18.4538 13.3287 19.3219L17.9905 24.7361L28.6427 12.6874C29.4011 11.829 30.7122 11.7483 31.5711 12.5072C32.4295 13.266 32.5102 14.5771 31.7513 15.4355L19.5247 29.266C19.1301 29.7113 18.564 29.9663 17.9697 29.9663Z" fill="white"/>
</svg>
