<svg width="186" height="44" viewBox="0 0 186 44" fill="none" xmlns="http://www.w3.org/2000/svg">
<path d="M52.7884 35H46.8565L55.8949 8.81818H63.0284L72.054 35H66.1222L59.5639 14.8011H59.3594L52.7884 35ZM52.4176 24.7088H66.429V29.0298H52.4176V24.7088ZM75.2053 35V8.81818H80.7408V19.6207H91.978V8.81818H97.5007V35H91.978V24.1847H80.7408V35H75.2053ZM102.065 8.81818H108.891L116.102 26.4091H116.408L123.619 8.81818H130.445V35H125.076V17.9588H124.859L118.083 34.8722H114.427L107.651 17.8949H107.434V35H102.065V8.81818ZM139.519 35H133.587L142.625 8.81818H149.759L158.784 35H152.853L146.294 14.8011H146.09L139.519 35ZM139.148 24.7088H153.159V29.0298H139.148V24.7088ZM171.217 35H161.936V8.81818H171.294C173.927 8.81818 176.194 9.34233 178.095 10.3906C179.995 11.4304 181.457 12.9261 182.48 14.8778C183.511 16.8295 184.027 19.1648 184.027 21.8835C184.027 24.6108 183.511 26.9545 182.48 28.9148C181.457 30.875 179.987 32.3793 178.069 33.4276C176.16 34.4759 173.876 35 171.217 35ZM167.471 30.2571H170.987C172.623 30.2571 174 29.9673 175.116 29.3878C176.241 28.7997 177.085 27.892 177.647 26.6648C178.218 25.429 178.504 23.8352 178.504 21.8835C178.504 19.9489 178.218 18.3679 177.647 17.1406C177.085 15.9134 176.245 15.0099 175.129 14.4304C174.012 13.8509 172.636 13.5611 171 13.5611H167.471V30.2571Z" fill="black"/>
<path d="M20.0004 4C8.95398 4 0 12.954 0 23.9997C0 35.0461 8.95398 44 20.0004 44C31.0461 44 40 35.0461 40 23.9997C40 12.954 31.0461 4 20.0004 4ZM14.6145 19.8681C14.6145 19.8967 14.6023 19.922 14.5805 19.9397L8.95133 24.1258L14.5805 28.3139C14.6023 28.3289 14.6145 28.3562 14.6145 28.3834V30.967C14.6145 30.9991 14.5988 31.0277 14.573 31.0427C14.5614 31.0488 14.5498 31.0528 14.5362 31.0528C14.5212 31.0528 14.5055 31.0473 14.4926 31.0372L6.38547 25.0073C6.36438 24.9916 6.3507 24.9651 6.3507 24.9372V23.3149C6.3507 23.2863 6.3643 23.2598 6.38547 23.2441L14.4926 17.2144C14.5055 17.2041 14.5212 17.1994 14.5362 17.1994C14.5498 17.1994 14.5614 17.2028 14.573 17.2095C14.5989 17.2238 14.6145 17.2525 14.6145 17.2852V19.8681ZM18.6343 32.1566C18.6227 32.1913 18.5941 32.2145 18.56 32.2145H16.2939C16.268 32.2145 16.2448 32.2008 16.2298 32.1776C16.2155 32.1559 16.2114 32.1272 16.2196 32.1013L21.3657 15.8421C21.3759 15.808 21.4059 15.7855 21.4393 15.7855H23.706C23.7305 15.7855 23.7551 15.7985 23.7694 15.821C23.7837 15.8435 23.7878 15.8721 23.7796 15.8987L18.6343 32.1566ZM33.648 24.9372C33.648 24.9651 33.6358 24.9917 33.6139 25.0073L25.5068 31.0371C25.4938 31.0473 25.4789 31.0527 25.4632 31.0527C25.4502 31.0527 25.438 31.0487 25.4264 31.0426C25.4005 31.0276 25.3848 30.999 25.3848 30.967V28.384C25.3848 28.3561 25.3971 28.3288 25.4189 28.3138L31.048 24.1257L25.4189 19.9396C25.3972 19.9233 25.3848 19.8974 25.3848 19.8688V17.2852C25.3848 17.2525 25.4005 17.2238 25.4264 17.2095C25.438 17.2028 25.4502 17.1994 25.4632 17.1994C25.4789 17.1994 25.4938 17.2041 25.5068 17.2144L33.6139 23.2441C33.6358 23.2598 33.648 23.2863 33.648 23.3149V24.9372Z" fill="black"/>
</svg>
