<svg width="186" height="44" viewBox="0 0 186 44" fill="none" xmlns="http://www.w3.org/2000/svg">
<path d="M52.7884 35H46.8565L55.8949 8.81818H63.0284L72.054 35H66.1222L59.5639 14.8011H59.3594L52.7884 35ZM52.4176 24.7088H66.429V29.0298H52.4176V24.7088ZM75.2053 35V8.81818H80.7408V19.6207H91.978V8.81818H97.5007V35H91.978V24.1847H80.7408V35H75.2053ZM102.065 8.81818H108.891L116.102 26.4091H116.408L123.619 8.81818H130.445V35H125.076V17.9588H124.859L118.083 34.8722H114.427L107.651 17.8949H107.434V35H102.065V8.81818ZM139.519 35H133.587L142.625 8.81818H149.759L158.784 35H152.853L146.294 14.8011H146.09L139.519 35ZM139.148 24.7088H153.159V29.0298H139.148V24.7088ZM171.217 35H161.936V8.81818H171.294C173.927 8.81818 176.194 9.34233 178.095 10.3906C179.995 11.4304 181.457 12.9261 182.48 14.8778C183.511 16.8295 184.027 19.1648 184.027 21.8835C184.027 24.6108 183.511 26.9545 182.48 28.9148C181.457 30.875 179.987 32.3793 178.069 33.4276C176.16 34.4759 173.876 35 171.217 35ZM167.471 30.2571H170.987C172.623 30.2571 174 29.9673 175.116 29.3878C176.241 28.7997 177.085 27.892 177.647 26.6648C178.218 25.429 178.504 23.8352 178.504 21.8835C178.504 19.9489 178.218 18.3679 177.647 17.1406C177.085 15.9134 176.245 15.0099 175.129 14.4304C174.012 13.8509 172.636 13.5611 171 13.5611H167.471V30.2571Z" fill="white"/>
<path d="M20.0004 2.05618C8.95398 2.05618 0 11.1803 0 22.4359C0 33.6922 8.95398 42.8162 20.0004 42.8162C31.0461 42.8162 40 33.6922 40 22.4359C40 11.1803 31.0461 2.05618 20.0004 2.05618ZM14.6145 18.2258C14.6145 18.2549 14.6023 18.2807 14.5805 18.2987L8.95133 22.5644L14.5805 26.8321C14.6023 26.8473 14.6145 26.8751 14.6145 26.9029V29.5356C14.6145 29.5682 14.5988 29.5974 14.573 29.6126C14.5614 29.6189 14.5498 29.623 14.5362 29.623C14.5212 29.623 14.5055 29.6174 14.4926 29.6071L6.38547 23.4627C6.36438 23.4467 6.3507 23.4196 6.3507 23.3912V21.7381C6.3507 21.709 6.3643 21.6819 6.38547 21.6659L14.4926 15.5216C14.5055 15.5112 14.5212 15.5063 14.5362 15.5063C14.5498 15.5063 14.5614 15.5098 14.573 15.5167C14.5989 15.5313 14.6145 15.5605 14.6145 15.5938V18.2258ZM18.6343 30.7477C18.6227 30.7831 18.5941 30.8067 18.56 30.8067H16.2939C16.268 30.8067 16.2448 30.7928 16.2298 30.7691C16.2155 30.747 16.2114 30.7178 16.2196 30.6914L21.3657 14.1233C21.3759 14.0885 21.4059 14.0657 21.4393 14.0657H23.706C23.7305 14.0657 23.7551 14.0789 23.7694 14.1018C23.7837 14.1247 23.7878 14.1539 23.7796 14.1809L18.6343 30.7477ZM33.648 23.3912C33.648 23.4196 33.6358 23.4467 33.6139 23.4627L25.5068 29.607C25.4938 29.6173 25.4789 29.6229 25.4632 29.6229C25.4502 29.6229 25.438 29.6188 25.4264 29.6126C25.4005 29.5973 25.3848 29.5681 25.3848 29.5355V26.9035C25.3848 26.875 25.3971 26.8473 25.4189 26.832L31.048 22.5643L25.4189 18.2986C25.3972 18.282 25.3848 18.2557 25.3848 18.2265V15.5938C25.3848 15.5605 25.4005 15.5313 25.4264 15.5167C25.438 15.5098 25.4502 15.5063 25.4632 15.5063C25.4789 15.5063 25.4938 15.5112 25.5068 15.5216L33.6139 21.6659C33.6358 21.6819 33.648 21.709 33.648 21.7381V23.3912Z" fill="white"/>
</svg>
